<svg width="56" height="56" viewBox="0 0 56 56" fill="none" xmlns="http://www.w3.org/2000/svg">
	<path d="M47.2033 16.8933L28 28L8.79668 16.8933C9.19089 16.2108 9.75316 15.6405 10.43 15.2367L25.6667 6.43998C27.1133 5.62332 28.8867 5.62332 30.3333 6.43998L45.57 15.2367C46.2467 15.6403 46.809 16.212 47.2033 16.8933V16.8933Z" fill="#D0E6F8"></path>
	<path d="M28 28V50.1667C27.2643 50.1656 26.5384 49.9981 25.8767 49.6767L10.5 40.7866C9.79175 40.3769 9.20348 39.7885 8.79401 39.0801C8.38454 38.3717 8.16821 37.5682 8.16666 36.75V19.25C8.17052 18.4233 8.3875 17.6116 8.79666 16.8933L28 28Z" fill="#A1CCF0"></path>
	<path d="M47.8333 19.25V36.75C47.8318 37.5682 47.6155 38.3717 47.206 39.0801C46.7965 39.7885 46.2082 40.3769 45.5 40.7866L30.0533 49.7C29.4117 50.0033 28.7093 50.162 28 50.1667V28L47.2033 16.8933C47.6117 17.612 47.8287 18.424 47.8333 19.25V19.25Z" fill="#4299E1"></path>
</svg>